<?xml version="1.0" ?><svg enable-background="new 0 0 515.91 728.5" height="512" id="Layer_1" version="1.1" viewBox="0 0 512.00003 512" width="512" xml:space="preserve" xmlns="http://www.w3.org/2000/svg" xmlns:cc="http://creativecommons.org/ns#" xmlns:dc="http://purl.org/dc/elements/1.1/" xmlns:inkscape="http://www.inkscape.org/namespaces/inkscape" xmlns:rdf="http://www.w3.org/1999/02/22-rdf-syntax-ns#" xmlns:sodipodi="http://sodipodi.sourceforge.net/DTD/sodipodi-0.dtd" xmlns:svg="http://www.w3.org/2000/svg"><defs id="defs7"/><g id="g3874" transform="translate(474.54357,292.42051)"><path d="m -413.3771,-150.31979 -57.95812,-24.00703 -24.00704,-57.95812 24.00703,-57.95812 57.95812,-24.00704 57.95812,24.00704 24.00704,57.95812 -24.00704,57.95811 z" id="path3773" style="fill:#000000;fill-opacity:1;fill-rule:nonzero;stroke:none" transform="matrix(3.1232785,-1.2937043,1.2937043,3.1232785,1373.0563,154.28232)"/><path d="m -306.84375,-249.65625 -124.9375,124.90625 0,176.65625 124.9375,124.90625 176.59375,0 124.9375,-124.90625 0,-176.65625 -124.9375,-124.90625 -176.59375,0 z M -206.5,-223.4375 c 54.02256,0.0732 51.02636,57.01868 50.6875,87.71875 -0.21899,20.11505 10.87755,33.68655 22.25,48.03125 10.1603,12.007929 23.47374,29.605041 31.09375,49.75 6.20888,16.414289 8.65089,34.5706714 2.5,52.8125 1.84255,0.6995 3.64541,1.77825 5.40625,3.3125 0.0111,0.009 0.02105,-0.009 0.03125,0 4.42396,3.76716 5.82395,9.57998 7.0625,14.96875 1.23939,5.39191 2.39506,10.4243 4.8125,13.15625 l 0,0.03125 c 7.35767,8.16731 10.53019,14.26838 10.21875,19.71875 -0.31182,5.45278 -4.31037,9.18913 -9.28125,12.1875 -9.942139,5.99638 -24.96672,10.546731 -34,21.5 l -1.75,-1.4375 1.75,1.46875 c -9.47719,11.2786 -21.19146,17.78592 -32.21875,18.65625 -11.01283,0.86883 -21.37587,-4.22226 -26.9375,-15.34375 -0.0111,-0.0157 0.0111,-0.0467 0,-0.0625 -0.74313,-1.42262 -1.3126,-2.91217 -1.6875,-4.46875 -14.34692,0.79668 -26.79622,-3.55437 -36.78125,-2.75 -14.71831,0.81038 -23.90801,4.3965 -32.28125,4.4375 -3.2359,7.11144 -9.51978,11.69596 -17.28125,13.46875 -10.70547,2.44514 -24.13954,0.0144 -37.375,-6.90625 l 0,-0.0312 c -12.36311,-6.55275 -28.07271,-5.92454 -39.65625,-8.34375 -5.7918,-1.20974 -10.91395,-3.36366 -13.40625,-8.21875 -2.487,-4.84508 -2.0329,-11.530961 1.5,-21.1875 1.1051,-3.44062 0.2599,-8.50856 -0.5625,-13.875 -0.8224,-5.36682 -1.59935,-11.15741 1.09375,-16.1875 l 0,-0.03125 c 2.9749,-5.70864 7.9112,-8.05466 12.375,-9.65625 4.46218,-1.60086 8.49379,-2.68842 11.34375,-5.53125 3.05035,-3.227 5.79491,-8.01316 9.5,-11.96875 0.49496,-0.52849 0.98423,-1.04157 1.53125,-1.53125 -1.74574,-11.511589 0.15256,-23.722891 4.125,-35.65625 8.41688,-25.284619 26.22367,-49.555261 38.84375,-64.5625 10.74159,-15.26902 13.89735,-27.56904 15,-43.1875 0.89598,-21.35738 -15.12059,-85.13797 45.25,-90 2.38864,-0.19045 4.6478,-0.28125 6.84375,-0.28125 z m 7.1875,47.28125 c -3.12871,0.0287 -5.74955,0.98945 -8.4375,3.03125 -2.68813,2.04171 -4.61394,4.56658 -6.15625,8.0625 -1.5424,3.49592 -2.19975,6.92754 -2.15625,10.9375 l 0,0.3125 c 0.0259,1.13165 0.11225,2.16991 0.25,3.21875 2.42551,0.57722 4.97661,1.53977 7.71875,2.90625 -0.1878,-1.0845 -0.2749,-2.18716 -0.25,-3.40625 0,-0.088 0.0155,-0.1621 0.0312,-0.25 0.0741,-2.2181 0.44023,-4.11976 1.21875,-6 0.77852,-1.88006 1.73671,-3.22371 3,-4.28125 1.204,-1.00798 2.34733,-1.45975 3.6875,-1.46875 0.0658,0 0.15215,-0.009 0.21875,0 1.42485,0.0445 2.62267,0.58954 3.8125,1.75 1.18992,1.16046 2.00974,2.56111 2.65625,4.5 0.61696,1.85069 0.9194,3.66607 0.875,5.78125 0,0.10245 -0.0312,0.1621 -0.0312,0.25 -0.0741,2.20336 -0.47148,4.04271 -1.25,5.9375 -0.51534,1.25439 -1.10846,2.2477 -1.8125,3.09375 1.94175,0.67375 4.27559,1.54304 7.3125,2.84375 0.43808,0.18018 0.87448,0.36731 1.28125,0.5625 1.19835,-1.44949 2.22213,-3.13026 3.09375,-5.125 1.52767,-3.49602 2.2167,-6.91281 2.1875,-10.9375 -0.0282,-0.10301 -0.0312,-0.20967 -0.0312,-0.3125 -0.0741,-3.92196 -0.81824,-7.21529 -2.375,-10.59375 -1.58649,-3.46646 -3.58027,-5.95452 -6.3125,-7.9375 -2.68924,-1.95204 -5.27849,-2.875 -8.34375,-2.875 l -0.1875,0 z m -42.3125,3.34375 c -2.24737,0.11755 -4.11806,1.07019 -5.96875,2.90625 -1.85079,1.83615 -3.10769,4.04039 -4.0625,7.125 -0.95462,3.08462 -1.34698,6.09594 -1.15625,9.5625 l 0,0.0312 c 0.20575,3.46656 0.89513,6.40606 2.1875,9.34375 1.09145,2.48026 2.36882,4.34517 3.96875,5.84375 0.73378,-0.54053 1.34503,-1.01745 1.875,-1.40625 0.82642,-0.60723 1.30415,-0.94273 2.3125,-1.71875 -0.15989,-0.11255 -0.33761,-0.266 -0.5,-0.40625 -0.96945,-0.83716 -1.66608,-1.90983 -2.3125,-3.4375 -0.6315,-1.48358 -1.0114,-2.95615 -1.1875,-4.71875 l 0,-0.1875 c -0.16156,-1.82142 -0.0695,-3.41548 0.3125,-5.03125 0.38194,-1.61567 0.87952,-2.82833 1.6875,-3.8125 0.80779,-0.98417 1.69039,-1.4746 2.71875,-1.5625 0.0965,-0.009 0.18685,0 0.28125,0 0.91321,-0.009 1.74643,0.30381 2.625,1.0625 0.96944,0.83734 1.71413,1.89519 2.375,3.4375 0.61706,1.48358 1.01112,2.97088 1.1875,4.71875 0,0.0732 -0.0167,0.14515 0,0.21875 0.12604,1.31599 0.0711,2.49301 -0.0937,3.65625 1.68405,-1.1121 3.65104,-2.12029 5.84375,-2.875 0.38639,-0.13294 0.75393,-0.26078 1.15625,-0.375 0.1144,-1.32739 0.1545,-2.73153 0.0625,-4.1875 -0.19101,-3.46656 -0.89494,-6.40597 -2.1875,-9.34375 -1.29266,-2.9377 -2.86454,-4.99468 -4.90625,-6.625 -1.88201,-1.50312 -3.65385,-2.21875 -5.6875,-2.21875 -0.17221,0 -0.35552,-0.009 -0.53125,0 z m 19.5625,24 c -2.47572,0.0102 -4.67364,0.47389 -6.65625,1.15625 -5.75931,1.98261 -9.57187,6.1374 -11.96875,8.40625 -0.46717,0.44837 -1.06482,0.86153 -2.53125,1.9375 -1.47589,1.08339 -3.71621,2.70326 -6.90625,5.09375 -2.83695,2.12639 -3.76125,4.91517 -2.78125,8.15625 0.98001,3.24098 4.12501,6.95513 9.84375,10.1875 l 0,0.0312 c 3.55049,2.08479 5.96766,4.88876 8.75,7.125 2.78234,2.23598 5.85255,3.98111 11,4.28125 6.04649,0.34971 10.47641,-1.44032 14.40625,-3.6875 3.93001,-2.24718 7.30216,-5.00793 11.125,-6.25 l 0,-0.0312 c 7.8403,-2.4482 13.43694,-7.37731 15.1875,-12.0625 0.87523,-2.34241 0.85819,-4.54027 -0.1875,-6.59375 -1.04568,-2.05339 -3.19757,-4.00383 -6.84375,-5.5 -7.57842,-3.24571 -10.89539,-3.49952 -15.125,-6.25 -6.88568,-4.4272 -12.55464,-5.98765 -17.28125,-5.96875 l -0.0312,-0.0312 z m 33.09375,19.625 0.15625,2.53125 c -1.16268,0.0695 -3.20715,0.94877 -5.59375,2.28125 -2.3865,1.3324 -5.19098,3.09165 -8.28125,4.875 -6.18062,3.5667 -13.49686,7.15625 -21.25,7.15625 -7.74248,0 -13.84902,-3.54374 -18.25,-7.03125 -2.20058,-1.74388 -4.03001,-3.45907 -5.375,-4.71875 -0.67255,-0.62983 -1.21666,-1.15435 -1.625,-1.46875 -0.25132,-0.19405 -0.48765,-0.25295 -0.53125,-0.28125 -0.0269,-0.0176 0.0575,-0.003 0.125,-0.65625 l 0.0625,-1.96875 c 0.92878,0 1.35108,0.41586 1.90625,0.84375 0.55517,0.4278 1.15741,0.98238 1.84375,1.625 1.37223,1.28524 3.10624,2.9757 5.1875,4.625 4.16263,3.29861 9.70989,6.5 16.65625,6.5 6.93544,0 13.90605,-3.37639 19.96875,-6.875 3.03107,-1.74926 5.8252,-3.51744 8.3125,-4.90625 2.48729,-1.38853 4.64792,-2.40943 6.6875,-2.53125 z m 6.90625,9.25 c -2.99754,4.27714 -8.28106,7.92818 -14.90625,10 -3.13547,1.02326 -6.45104,3.66244 -10.59375,6.03125 -4.14873,2.37243 -9.23072,4.44712 -15.875,4.0625 -5.69234,-0.33155 -9.45278,-2.45116 -12.46875,-4.875 -3.01023,-2.41911 -5.34297,-5.05265 -8.4375,-6.875 -1.05772,-0.6014 -3.43421,-2.21721 -4.125,-2.71875 -1.33962,25.265625 -18.18552,56.969641 -26.25,75.25 -5.53662,13.174329 -8.89227,27.283851 -9.28125,41.09375 -14.55535,-19.405529 -3.90516,-44.321401 1.78125,-55.09375 6.34487,-11.782089 7.32208,-14.97753 5.78125,-13.84375 -5.72365,9.336199 -14.63389,24.203651 -18.125,39.5 -1.81901,7.96907 -2.20385,16.03533 0.15625,23.5 2.35964,7.4637296 7.42256,14.36006 16.4375,19.96875 12.27084,7.52552 20.60066,15.04502 25.53125,21.71875 4.92925,6.67439 6.50911,12.51317 4.96875,16.65625 -0.77018,2.07163 -2.31557,3.65161 -4.53125,4.65625 -1.78159,0.80789 -4.0002,1.25 -6.59375,1.25 1.3185,1.65653 2.64652,3.341 3.9375,5.03125 2.0218,2.64682 3.97539,5.32274 5.6875,8.03125 25.26406,17.241629 54.99794,10.636859 76.4375,-4.65625 2.13073,-7.32006 4.24818,-14.26535 4.5625,-19.375 0.51423,-10.161699 1.07365,-19.1788 2.9375,-26.65625 1.8658,-7.48337 5.19832,-13.5748802 11.34375,-16.9375 0.98547,-0.53933 1.95963,-0.9729 2.9375,-1.3125 0.0686,-0.63206 0.16841,-1.29447 0.28125,-1.90625 1.76269,-11.6774993 12.19373,-12.2267697 25.28125,-6.46875 12.61832,5.7091997 17.35634,10.6755807 15.21875,17.4375 0.0769,-0.009 0.1732,0 0.25,0 0.82956,-0.0167 1.66676,-0.0315 2.53125,0 2.62467,-8.5306392 -2.83265,-14.7809804 -17.59375,-21.96875 -0.99195,-0.46958 -1.94227,-0.88079 -2.90625,-1.28125 1.97048,-8.0077 1.555,-16.09429 -0.28125,-23.8125 -4.02673,-16.926289 -15.13127,-31.95048 -23.5625,-39.40625 -1.55528,-0.0639 -1.38751,1.29934 1.75,4.34375 7.77065,7.15118 24.75826,32.847821 15.5625,56.6875 -2.62783,-0.67217 -5.08385,-1.0058 -7.3125,-0.9375 -3.51714,-19.432859 -11.65823,-35.56477 -15.75,-43.15625 -7.69792,-14.308659 -19.63167,-43.638115 -24.78125,-63.9375 z M -140,-3.71875 c -4.05156,0.0185 -6.8319,2.1224003 -7.40625,7 -1.07226,7.182679 2.15464,16.67113 8.75,18.375 6.46308,1.76269 15.89066,-4.92411 18.09375,-9.125 2.61476,-5.5669994 -0.39169,-9.3599803 -9.96875,-13.78125 -3.55826,-1.5918699 -6.78525,-2.48165 -9.46875,-2.46875 z m -10.875,13.125 c -0.21853,0.10811 -0.43476,0.22276 -0.65625,0.34375 -4.75319,2.60105 -7.42113,7.22813 -9.125,14.0625 -1.70386,6.83436 -2.26804,15.701131 -2.78125,25.84375 l 0,0.03125 c -0.48542,7.91617 -4.10139,17.639651 -6.625,27.125 -2.52314,9.485429 -3.77675,18.457986 -0.78125,24.15625 l 0.0312,0.0312 0,0.0312 c 4.82841,9.69118 13.00724,13.6554 22.5,12.90625 9.49285,-0.74915 20.28551,-6.54277 29.125,-17.0625 10.18021,-12.330959 26.098641,-17.0433 35.09375,-22.46875 4.49964,-2.71379 6.96384,-5.22817 7.15625,-8.59375 0.19231,-3.3654 -2.09517,-8.63666 -9.125,-16.4375 l 0,-0.03125 c -3.65637,-4.11567 -4.65581,-9.88285 -5.875,-15.1875 C -93.15669,28.85159 -94.54248,24.13073 -97.5,21.625 l -0.03125,0 c -3.84868,-3.36605 -7.60282,-3.67117 -12.09375,-3.5625 -0.96935,0.0232 -1.97905,0.0835 -3,0.125 -5.11975,5.88586 -17.21461,13.12212 -25.625,10.90625 -7.68551,-1.9387 -12.08354,-10.903871 -12.625,-19.6875 z m -154.46875,0.65625 c -4.05517,0.0287 -6.74918,1.94225 -9.4375,4.8125 -3.18624,3.40143 -5.90674,8.17661 -9.53125,12 l 0,0.03125 -0.0312,0 c -3.92048,3.92909 -8.87569,5.1228 -13.0625,6.625 -4.18685,1.5021 -7.575,3.09793 -9.875,7.53125 l -0.0312,0.03125 c -1.7964,3.33529 -1.3686,8.11426 -0.5625,13.375 0.8063,5.26065 2.00445,10.87775 0.34375,16 l 0,0.03125 0,0.0625 c -3.3577,9.156669 -3.3301,14.51562 -1.75,17.59375 1.5801,3.07813 5.00515,4.71049 10.28125,5.8125 10.54958,2.20327 27.01939,1.490586 40.84375,8.8125 12.49539,6.5365 24.99047,8.67026 34.21875,6.5625 9.23088,-2.10832 15.25221,-7.90252 16.0625,-18.5625 l 0,-0.0625 0,-0.03125 c 0.62613,-6.2501 -4.19227,-14.42706 -10.40625,-22.5625 -6.21397,-8.13545 -13.52501,-16.09122 -17,-23.34375 l 0,-0.03125 c -4.32419,-9.284799 -8.57289,-17.64945 -13.09375,-23.78125 -4.52067,-6.13181 -9.18179,-9.87239 -14.5625,-10.6875 -0.7901,-0.11945 -1.54809,-0.21775 -2.25,-0.21875 l -0.15625,0 z" id="path3870" style="fill:#ffffff;fill-opacity:1;fill-rule:nonzero;stroke:none" transform="translate(0,-1.5e-5)"/></g></svg>